<?xml version="1.0" encoding="iso-8859-1"?>
<!-- Generator: Adobe Illustrator 19.0.0, SVG Export Plug-In . SVG Version: 6.00 Build 0)  -->
<svg version="1.1" id="Capa_1" xmlns="http://www.w3.org/2000/svg" xmlns:xlink="http://www.w3.org/1999/xlink" x="0px" y="0px"
	 viewBox="0 0 512 512" style="enable-background:new 0 0 512 512;" xml:space="preserve">
<circle style="fill:#474F70;" cx="256" cy="256" r="256"/>
<g>
	<path style="fill:#FF4F6F;" d="M447.667,349.27H73.988c-17.127,0-31.01-13.884-31.01-31.01V76.461
		c0-17.127,13.884-31.01,31.01-31.01h373.68c17.127,0,31.01,13.884,31.01,31.01v241.797
		C478.678,335.385,464.794,349.27,447.667,349.27z"/>
	<path style="fill:#FF4F6F;" d="M238.983,426.783l-65.705-88.412l87.55-117.806l87.55,117.806l-65.705,88.412
		C271.789,441.427,249.865,441.427,238.983,426.783z"/>
</g>
<g>
	<path style="fill:#FFFFFF;" d="M149.131,208.596h-43.627v52.913c0,4.029-4.556,6.132-9.286,6.132c-4.555,0-9.286-2.102-9.286-6.133
		V145.521c0-4.205,4.73-5.957,9.286-5.957c4.73,0,9.286,1.752,9.286,5.957v48.357h43.627v-48.357c0-4.205,4.73-5.957,9.286-5.957
		c4.73,0,9.286,1.752,9.286,5.957v115.987c0,4.029-4.555,6.133-9.286,6.133c-4.556,0-9.286-2.102-9.286-6.133V208.596z"/>
	<path style="fill:#FFFFFF;" d="M209.398,196.157h26.981c3.855,0,6.133,3.505,6.133,7.534c0,3.329-1.928,7.184-6.133,7.184h-26.981
		v40.298h52.036c3.854,0,6.133,3.855,6.133,8.41c0,3.855-1.928,8.059-6.133,8.059h-62.374c-4.029,0-8.235-2.102-8.235-6.133V145.696
		c0-4.03,4.205-6.133,8.235-6.133h62.374c4.205,0,6.133,4.205,6.133,8.059c0,4.556-2.278,8.41-6.133,8.41h-52.036V196.157z"/>
	<path style="fill:#FFFFFF;" d="M290.69,267.641c-4.029,0-8.235-2.102-8.235-6.133V145.521c0-4.205,4.73-5.957,9.286-5.957
		c4.73,0,9.286,1.752,9.286,5.957v105.65h45.554c3.679,0,5.606,4.029,5.606,8.235c0,4.03-1.927,8.235-5.606,8.235H290.69V267.641z"
		/>
	<path style="fill:#FFFFFF;" d="M366.025,145.521c0-3.154,2.803-5.957,7.184-5.957h34.166c21.551,0,38.371,10.337,38.371,38.545
		v1.401c0,28.034-17.346,38.721-39.422,38.721h-21.725v43.277c0,4.029-4.556,6.133-9.286,6.133c-4.555,0-9.286-2.102-9.286-6.133
		V145.521H366.025z M384.597,156.034v47.481h21.725c12.965,0,20.85-7.358,20.85-22.777v-2.102c0-15.419-7.885-22.602-20.85-22.602
		H384.597z"/>
</g>
<g>
</g>
<g>
</g>
<g>
</g>
<g>
</g>
<g>
</g>
<g>
</g>
<g>
</g>
<g>
</g>
<g>
</g>
<g>
</g>
<g>
</g>
<g>
</g>
<g>
</g>
<g>
</g>
<g>
</g>
</svg>
